<?xml version="1.0" encoding="UTF-8"?>
<svg width="1200pt" height="1200pt" version="1.1" viewBox="0 0 1200 1200" xmlns="http://www.w3.org/2000/svg">
 <path d="m181.27 566.23c12.539 24.098 47.484 17.941 67.176 0.60156-0.69531 47.219-9.7812 113.39 3.9492 163.22-25.414-2.7852-48.672-34.43-23.137-62.113 10.32-11.207-6.3594-27.961-16.715-16.727-19.945 21.613-27.422 49.246-9.7422 74.773 12.422 17.914 36.434 29.375 58.414 27.277 5.4258 10.645 12.625 19.859 21.84 27.324-9.6016 10.199-19.164 20.398-28.488 30.828-9.4062 10.512 4.2969 25.727 14.449 18.695-21.758 33.359 17.148 66.949 54.742 64.066 16.488-1.2617 32.723-8.4609 44.676-19.547-4.7031 68.23-6.9609 136.95-9.6484 205.18-0.60156 15.254 23.051 15.215 23.652 0 2.8203-71.809 8.125-143.52 10.5-215.38 1.2109-36.383 22.523-96.086 1.0195-129.41-13.934-21.613-38.496-29.832-44.387-57.758-5.2578-24.84-5.1016-63.66 21.742-77.184 31.5-15.863 56.316-1.1406 72.551-36.996 28.043-62.004-48.574-257.24 55.453-264.68 70.789-5.0625 141.97-3.0469 212.81 0.50391 25.129 1.2617 38.555 2.1133 46.246 28.703 8.6289 29.855 19.043 58.992 20.676 90.301 0.14453 2.6641 1.0195 4.8242 2.3047 6.5508-2.5664 3.3008-3.4453 7.8242-0.69531 12.539 40.738 69.684 80.34 140 123.14 208.44-25.922-1.1289-57.73-5.0391-74.016 11.016-18.938 18.684 10.008 53.293 24.371 76.656-39.445 2.1367-78.938-0.35938-118.45 1.2969-12.133 0.51563-15.613 15.406-5.9531 22.031 36.77 25.285 78.66 40.691 117.57 62.051-18.254 24.59-41.09 45.59-27.312 79.609 15.562 38.41 40.715 74.062 60.887 110.59-31.246 24.926-68.195 42.887-108.47 26.316-30.469-12.539-56.438-33.324-82.273-53.27-22.297-17.242-44.027-35.172-66.254-52.43-11.41-8.8555-25.117-21.527-40.535-21.527-33.469 0-61.512 61.066-76.5 83.676-35.879 54.156-83.41 98.051-109.7 158.58-6 13.824 14.34 25.871 20.41 11.914 26.258-60.422 74.398-104.15 109.69-158.55 14.473-22.297 28.598-50.711 49.766-67.332 16.176-12.684 46.379 24.215 58.379 33.926 39.539 32.004 88.691 78.18 139.48 90.719 50.531 12.504 91.188-8.3398 129.39-40.812 4.1523-3.5039 4.1875-9.8867 1.8477-14.305-16.465-31.332-33.516-63.191-51.637-93.562-13.402-22.453-21.469-40.945-0.98438-63.805 7.9688-8.9023 14.734-17.629 21.109-27.707 3.457-5.4609 1.1523-12.973-4.2461-16.176-29.832-17.664-61.922-30.793-92.496-46.836 31.488 0.15625 62.977 0.9375 94.414-2.0508 7.5117-0.71875 13.621-7.0195 11.387-14.953-2.1719-7.8008-36.395-68.398-31.5-69.086 24.109-3.3828 48.59 0.33594 72.648-2.6523 8.2578-1.0195 15.527-9.4336 10.211-17.773-47.102-73.848-89.785-150.3-133.97-225.9-0.046874-0.085937-0.12109-0.15625-0.17969-0.25391 1.2344-1.7773 1.9453-4.0781 1.7891-6.9102-1.7383-33.121-11.316-65.172-21.516-96.574-3.2539-9.9844-7.1758-23.113-15-31.668 1.4297-0.52734 2.832-1.3672 4.1758-2.6172 38.902-36.695 84.996-97.656 49.152-150.54-11.809-17.426-30.277-27.887-51.086-34.094-21.133-28.32-55.008-45.145-92.594-53.113-14.879-3.1562-21.203 19.633-6.2891 22.801 21.457 4.5352 41.219 11.797 57.336 22.98-16.332-1.2969-32.449-1.1289-46.621-0.53906-10.668-22.621-34.691-37.355-63.926-41.914-27.359-4.2734-86.195-0.35938-84.18 39.613 0.76953 15.168 24.422 15.238 23.641 0-1.043-20.641 70.766-26.027 97.246 3.7812-53.02 2.9609-106.66 7.5352-159.16 14.109-56.34 7.0664-118.11 17.891-164.8 52.801-2.0625 1.5469-3.9375 3.2031-5.9023 4.8008-70.523 0.30078-142.98 38.953-104.58 114.28 6.9375 13.598 27.312 1.6211 20.426-11.93-23.258-45.613 13.379-70.547 57.949-77.449-45.359 51.648-56.184 117.77-56.293 186.74-13.609 11.242-17.785 26.832-2.6172 45.469 1.2344 1.5117 2.5781 2.8906 3.9844 4.2109 0.66016 12.887 1.4883 25.754 2.3164 38.566-8.9141 0.61328-17.387 2.207-25.105 5.4961-31.453 13.551-54.734 60.855-37.969 93.086zm266.84-382.07c-1.8125-14.941-25.488-15.121-23.641 0 2.8086 23.039 5.8789 44.09 12.59 64.117-21.551-21.625-47.809-39.828-77.219-41.746-26.699-1.7383-51.758 9.6133-67.309 29.34 9.3594-15.973 21.336-30.504 36.574-43.094 0.80469-0.67188 1.668-1.2227 2.4844-1.8711 23.855 1.1055 46.246 6.9961 59.578 17.363 11.867 9.2539 28.727-7.3555 16.727-16.703-12.527-9.7422-29.172-16.465-47.52-20.23 77.258-43.727 176.61-40.703 262.4-48.926 12.863-1.2344 26.23-2.6523 39.77-3.7188 0.32422 4.6094 0 9.5742-1.2617 15.035-3.4219 14.832 19.367 21.133 22.801 6.2773 1.8477-8.0508 2.3867-15.602 1.9336-22.703 23.195-0.79297 46.379 0.43359 68.027 6.4062 5.9023 9.8867 10.152 21.348 12.301 34.68 2.4375 15.023 25.223 8.6289 22.801-6.2773-0.79297-4.8594-1.9219-9.4688-3.2148-13.969 44.785 33.109 6.3594 95.734-32.305 132.19-3.2656 3.0703-4.0781 6.6719-3.3828 9.9844-4.5469-1.5-9.2266-2.5078-13.945-3.2539 21.938-23.281 35.723-57.227 31.129-88.668-6.4219-43.992-53.281-48.059-87.191-30.742-33.469 17.113-36.863 54.07-4.6094 75.191 28.609 18.719 58.199 5.1719 50.473-30.84-3.1914-14.902-25.98-8.5781-22.789 6.2773 4.4297 20.664-18.012 5.4258-23.867-3.793-14.062-22.094 24.098-33.504 40.598-33.266 50.941 0.71875 12.59 81-8.6758 97.273-2.3398 1.8008-3.7422 4.0547-4.4531 6.4453-1.7773-0.058593-3.5625-0.12109-5.3398-0.19141-14.711-0.5625-29.438-1.1406-44.16-1.6562 4.3086-3.6953 8.8906-7.1172 13.355-10.465 5.1484-3.8516 7.7773-10.129 4.2461-16.176-2.9766-5.0742-11.016-8.1133-16.176-4.2344-12.086 9.0586-23.41 18.109-32.746 30.059-7.9336-0.19141-15.863-0.48047-23.797-0.5625 29.137-11.387 52.738-43.285 50.398-75.07-2.7461-37.211-36.469-55.836-71.809-51.168-67.715 8.9531-14.953 115.22 23.207 63 9-12.336-11.508-24.109-20.41-11.93-5.9297 8.1133-11.82-3.4453-12.215-11.398-0.91016-18.445 17.746-18.48 32.027-15.133 47.711 11.137 19.824 72.086-14.891 81.336-0.80469-0.15625-1.668-0.25391-2.5938-0.25391-29.23 0.035157-79.234 5.1719-100.46-19.992-9.6602-11.426-13.621-54.254 6.8633-57.672 9.3711-1.5586 26.41 11.641 14.09 18.863-13.152 7.6914-1.2617 28.129 11.914 20.41 53.051-31.094-42.527-104.79-60.574-29.832-14.797 61.57 26.809 82.188 74.461 88.836-18.168 0.20312-36.863 1.3906-53.531 6.1445-21.133-29.137-26.328-58.188-30.66-93.695zm-83.629 94.043c-2.8906 11.965-33.359 28.883-36.863 5.3281-1.5234-10.285 13.344-14.555 20.41-16.246 16.945-4.0312 35.578-6.2891 51.348 3.1914 42.828 25.754-24.574 63.457-51.336 62.352-51.266-2.1133-65.773-76.957-17.953-97.969 22.402-9.8281 44.688-3.707 64.488 8.9766-20.219-5.7969-41.93-3.8164-63.035 4.0938-28.176 10.586-36.926 40.297-13.945 61.715 23.074 21.504 63.07 2.0898 69.684-25.152 3.5898-14.82-19.195-21.109-22.797-6.2891zm-60.383 514.5c10.656 4.1992 23.004 6.8398 37.633 7.3789 0.99609 0.046874 1.9219-0.023438 2.7734-0.19141 6.0586 3.9727 11.258 9.2539 14.699 16.262 8.0273 16.273 4.3906 36.059-11.891 45.898-10.285 6.2031-21.781 10.586-33.984 7.8125-8.4375-1.8945-25.609-6.3125-27.863-16.727-2.6758-12.336 12.383-18.301 22.141-18.719 4.8594-0.21484 22.547-1.2461 20.137 5.8555-4.9336 14.461 17.902 20.641 22.789 6.2773 12.383-36.434-45.121-44.09-69.625-28.789 7.6875-8.3789 15.367-16.789 23.191-25.059zm-39.793-351.49c24.023 7.1289 54.625 3.4922 75.434 0.61328 37.164-5.125 63.742-20.102 79.824-51.312 0.28906 24.742 3.0234 49.598 4.8477 70.414 1.4023 15.887 13.859 104.22-12.695 105.95-21.203 1.3672-41.352 5.0156-58.945 17.484-31.488 22.332-36.613 74.125-23.496 107.66 3.6836 9.3711 7.3086 21.203 14.594 28.441 8.6758 8.6289 28.766 19.5 31.02 30.91 3.0977 15.684 2.6406 31.477 1.0938 47.281-11.398-16.715-29.578-26.484-49.715-29.641 4.4648-4.7773 8.9141-9.5625 13.297-14.41 10.211-11.27-6.4688-28.043-16.715-16.727-7.668 8.4609-15.445 16.789-23.242 25.094-6.1328-4.5859-11.207-10.188-15.359-16.633 49.871-27.77 21.336-121.18 16.754-165.57-1.5586-15-25.211-15.168-23.641 0 2.2578 21.973 6.457 43.715 8.8555 65.676 2.2305 20.438 8.5312 51.457-4.3086 69.637-2.3633 3.3594-5.0156 6.0234-7.8242 8.1484-16.957-53.566-0.66016-135.16-2.3281-180.3-0.625-16.586-1.9922-34.402-3.5039-52.871 12.238 0.49219 24.77 1.4297 37.117 1.6797-0.30078 0.3125-0.61328 0.57422-0.89844 0.88672-10.285 11.195 6.3711 27.961 16.727 16.715 23.172-25.223 76.199-3.2656 50.531 30.457-7.8008 10.273-21.539 10.848-30.637 1.6914-8.6055-8.6641-4.3555-11.41 6.3945-13.344 14.988-2.6992 8.6289-25.488-6.2773-22.789-25.656 4.6211-38.074 28.992-19.645 49.859 16.285 18.457 47.293 23.508 64.871 3.625 20.148-22.801 22.379-56.473-4.9805-74.734-3.9609-2.6406-8.1484-4.7031-12.457-6.3242 8.6523-5.9766 16.246-14.293 22.32-25.98 7.0195-13.5-13.379-25.465-20.41-11.941-20.293 39.047-64.066 29.062-104.58 26.879-0.69141-8.75-1.3984-17.605-2.0234-26.523zm96.301-63.168c-18.289-21.098-65.844-22.477-98.652-10.332 0.73047-35.473 4.9688-70.105 16.246-101.16-0.19141 0.96094-0.45703 1.8945-0.625 2.8672-14.113 81.742 88.344 111.17 139.5 59.27 11.438-11.617 21.047-29.316 19.848-45.625 2.6641 3.2266 5.207 6.4219 7.5352 9.4922 0.73047 0.94922 1.5352 1.7148 2.3867 2.375-6.4062 5.7969-11.867 12.91-15.898 21.984-5.7227 12.961-8.832 27.852-10.32 43.535-5.9414-2.4961-14.062-0.82812-16.754 7.0547-17.375 50.688-84.926 65.016-133.21 50.207-3.2539-0.99609-5.7461-2.1016-7.9219-3.2383-0.32422-6.7305-0.5625-13.465-0.71875-20.195 7.668-5.9883 19.906-10.656 28.836-11.242 16.727-1.1172 40.934-2.2188 53.004 11.723 10.023 11.535 26.656-5.2656 16.746-16.715zm-155.35 143.11c8.0273-19.223 21.059-28.355 40.598-30.047 0.48047 7.5117 0.91016 15 1.2969 22.43-1.4023-1.1406-2.8789-2.2695-4.5234-3.3828-12.66-8.6055-24.469 11.891-11.941 20.398 21.648 14.699-10.355 32.699-25.559 26.305-11.887-4.9961-3.207-27.746 0.12891-35.703z"/>
 <path d="m754.13 437.62c15.238 0 15.238 23.641 0 23.641h-14.484c-0.023437 8.8789-0.49219 17.449-4.2109 25.668-3.625 8.0156-16.609 7.4297-20.41 0-3.2266-6.2773-7.2734-12.098-10.512-18.383-1.1992-2.3164-1.4766-4.8359-1.2344-7.2734h-64.727c-15.254 0-15.254-23.641 0-23.641h115.58z"/>
</svg>
